<svg xmlns="http://www.w3.org/2000/svg" version="1.1" xmlns:xlink="http://www.w3.org/1999/xlink" xmlns:svgjs="http://svgjs.dev/svgjs" width="1500" height="1500" viewBox="0 0 1500 1500"><rect width="1500" height="1500" fill="#ffffff"></rect><g transform="matrix(0.6666666666666666,0,0,0.6666666666666666,249.39393939393938,438.58569500674764)"><svg viewBox="0 0 396 247" data-background-color="#000016" preserveAspectRatio="xMidYMid meet" height="935" width="1500" xmlns="http://www.w3.org/2000/svg" xmlns:xlink="http://www.w3.org/1999/xlink"><g id="tight-bounds" transform="matrix(1,0,0,1,0.2400000000000091,-0.09999999999999432)"><svg viewBox="0 0 395.52 247.2" height="247.2" width="395.52"><g><svg></svg></g><g><svg viewBox="0 0 395.52 247.2" height="247.2" width="395.52"><g transform="matrix(1,0,0,1,75.54432,64.32082635960042)"><svg viewBox="0 0 244.43135999999998 118.55834728079915" height="118.55834728079915" width="244.43135999999998"><g><svg viewBox="0 0 244.43135999999998 118.55834728079915" height="118.55834728079915" width="244.43135999999998"><g transform="matrix(1,0,0,1,0,63.382566105542644)"><svg viewBox="0 0 244.43135999999998 55.1757811752565" height="55.1757811752565" width="244.43135999999998"><g id="textblocktransform"><svg viewBox="0 0 244.43135999999998 55.1757811752565" height="55.1757811752565" width="244.43135999999998" id="textblock"><g><svg viewBox="0 0 244.43135999999998 55.1757811752565" height="55.1757811752565" width="244.43135999999998"><g transform="matrix(1,0,0,1,0,0)"><svg width="244.43135999999998" viewBox="1.1 -36.75 164.1232753701484 37.05" height="55.1757811752565" data-palette-color="#0b62e9"><g transform="matrix(1,0,0,1,0,0)"><g><svg width="11.20801537014842" viewBox="1.78 -36.36 74.21 36.36" height="5.491391262694729" data-palette-color="#0b62e9" id="scriptelement" x="151.6940076850742" y="-31.570435631347365"><path d="M12.91-30.02L1.78-30.02 1.78-36.36 31.64-36.36 31.64-30.02 20.51-30.02 20.51 0 12.91 0 12.91-30.02ZM36.57 0L36.57-36.36 46.06-36.36 56.07-11.93 56.5-11.93 66.51-36.36 75.99-36.36 75.99 0 68.53 0 68.53-23.67 68.23-23.67 58.82-0.18 53.74-0.18 44.33-23.76 44.03-23.76 44.03 0 36.57 0Z" opacity="1" transform="matrix(1,0,0,1,0,0)" fill="#000000" class="undefined-123" data-fill-palette-color="primary" id="yy-123"></path></svg></g></g><path d="M149.373-28.825C149.373-33.202 152.921-36.75 157.298-36.75 161.675-36.75 165.223-33.202 165.223-28.825 165.223-24.448 161.675-20.899 157.298-20.899 152.921-20.899 149.373-24.448 149.373-28.825ZM157.298-21.299C161.454-21.299 164.823-24.669 164.823-28.825 164.823-32.981 161.454-36.35 157.298-36.35 153.142-36.35 149.773-32.981 149.773-28.825 149.773-24.669 153.142-21.299 157.298-21.299Z" fill="#000000" id="scriptcircle" data-fill-palette-color="primary"></path><g class="wordmark-text-0" data-fill-palette-color="primary" id="text-0"><path d="M7.1 0.2L7.1 0.2Q5.3 0.2 3.85-1.3 2.4-2.8 2.4-6.25L2.4-6.25Q2.4-9.05 3.05-11.75 3.7-14.45 4.53-17.23 5.35-20 5.93-22.98 6.5-25.95 6.3-29.25L6.3-29.25Q4.95-29.05 3.65-28.55 2.35-28.05 1.1-27.1L1.1-27.1Q1.1-30.25 1.65-32.23 2.2-34.2 3.8-35.1 5.4-36 8.55-36L8.55-36Q10.25-36 12.35-35.75 14.45-35.5 16.68-35.25 18.9-35 20.9-35L20.9-35Q22.85-35 24.4-35.38 25.95-35.75 26.8-36.75L26.8-36.75Q27.8-36.1 28.33-34.98 28.85-33.85 28.85-32.55L28.85-32.55Q28.85-31.2 28.23-29.93 27.6-28.65 26.3-27.83 25-27 22.9-27L22.9-27Q20.7-27 18.1-27.7 15.5-28.4 12.75-28.9L12.75-28.9Q13-27.8 13.13-26.7 13.25-25.6 13.25-24.45L13.25-24.45Q13.25-23.2 13.15-21.98 13.05-20.75 12.85-19.45L12.85-19.45Q13.9-20 15.4-20.45 16.9-20.9 18.48-21.2 20.05-21.5 21.3-21.5L21.3-21.5Q22.1-21.5 22.7-21.35L22.7-21.35Q23.2-20.3 23.2-18.8L23.2-18.8Q23.2-16.4 22-13.9L22-13.9 21.65-13.75Q19.8-14.75 17.38-15.3 14.95-15.85 12.3-16.05L12.3-16.05Q11.8-13.2 11.35-10.25 10.9-7.3 10.9-4.2L10.9-4.2Q10.9-3.55 10.93-2.85 10.95-2.15 11-1.45L11-1.45Q9.35 0.2 7.1 0.2ZM40.05 0.2L40.05 0.2Q38.5 0.2 37.32-0.6 36.15-1.4 36.2-3L36.2-3Q36.3-5.8 36.62-9.2 36.95-12.6 37.4-16.13 37.85-19.65 38.32-22.9 38.8-26.15 39.2-28.7L39.2-28.7Q38.3-28.8 37.45-28.85 36.6-28.9 35.9-28.9L35.9-28.9Q33.8-28.9 32.12-28.5 30.45-28.1 29.3-27.1L29.3-27.1Q29.3-30.25 29.82-32.23 30.35-34.2 31.77-35.1 33.2-36 35.95-36L35.95-36Q37.95-36 40.42-35.68 42.9-35.35 45.45-35 48-34.65 50.2-34.65L50.2-34.65Q52-34.65 53.42-35 54.85-35.35 55.6-36.25L55.6-36.25Q56.7-35.9 57.3-34.73 57.9-33.55 57.9-32.15L57.9-32.15Q57.9-30.9 57.35-29.73 56.8-28.55 55.6-27.78 54.4-27 52.35-27L52.35-27Q51.4-27 50.02-27.18 48.65-27.35 47.1-27.55L47.1-27.55Q46.55-24.55 45.97-20.38 45.4-16.2 45.02-11.4 44.65-6.6 44.55-1.65L44.55-1.65Q43.65-0.7 42.42-0.25 41.2 0.2 40.05 0.2ZM61.6 0.2L61.6 0.2Q60.05 0.2 58.85-0.55 57.65-1.3 57.65-3.05L57.65-3.05Q57.65-5.8 58.82-8.65 60-11.5 61.72-14.28 63.45-17.05 65.17-19.7 66.9-22.35 68.07-24.75 69.25-27.15 69.25-29.2L69.25-29.2Q69.25-30.85 68.45-30.85L68.45-30.85Q67.9-30.85 67.2-29.98 66.5-29.1 66.2-27.4L66.2-27.4 65.65-27.5Q65.65-30.35 67-32.33 68.35-34.3 70.45-35.3 72.55-36.3 74.75-36.3L74.75-36.3Q77.3-36.3 79.52-34.85 81.75-33.4 82.6-30.25L82.6-30.25Q82.95-29 83.12-27.45 83.3-25.9 83.35-24.78 83.4-23.65 83.4-23.65L83.4-23.65Q83.5-19.6 83.57-16.8 83.65-14 83.85-12.1 84.05-10.2 84.4-8.9L84.4-8.9Q84.75-7.65 85.32-6.88 85.9-6.1 86.8-6.1L86.8-6.1Q87.65-6.1 88.27-6.6 88.9-7.1 89.09-7.55L89.09-7.55 89.45-7.3Q89.45-5 88.55-3.3 87.65-1.6 86.2-0.7 84.75 0.2 83.15 0.2L83.15 0.2Q81.6 0.2 80.12-0.73 78.65-1.65 77.55-3.6 76.45-5.55 76.1-8.65L76.1-8.65Q74.55-8.75 73.07-8.83 71.6-8.9 70.4-8.9L70.4-8.9Q69.6-8.9 68.87-8.88 68.15-8.85 67.45-8.8L67.45-8.8Q67-7.25 66.72-5.68 66.45-4.1 66.45-2.6L66.45-2.6Q66.45-1.45 64.95-0.63 63.45 0.2 61.6 0.2ZM69.1-13.45L69.1-13.45Q70.35-13.8 71.75-13.93 73.15-14.05 74.75-14.05L74.75-14.05 75.85-14.05Q75.75-17.75 75.57-21.65 75.4-25.55 74.3-28.9L74.3-28.9Q73.9-25.3 72.3-21.35 70.7-17.4 69.1-13.45ZM103.09 0.2L103.09 0.2Q101.54 0.2 100.37-0.6 99.19-1.4 99.24-3L99.24-3Q99.34-5.8 99.67-9.2 99.99-12.6 100.44-16.13 100.89-19.65 101.37-22.9 101.84-26.15 102.24-28.7L102.24-28.7Q101.34-28.8 100.49-28.85 99.64-28.9 98.94-28.9L98.94-28.9Q96.84-28.9 95.17-28.5 93.49-28.1 92.34-27.1L92.34-27.1Q92.34-30.25 92.87-32.23 93.39-34.2 94.82-35.1 96.24-36 98.99-36L98.99-36Q100.99-36 103.47-35.68 105.94-35.35 108.49-35 111.04-34.65 113.24-34.65L113.24-34.65Q115.04-34.65 116.47-35 117.89-35.35 118.64-36.25L118.64-36.25Q119.74-35.9 120.34-34.73 120.94-33.55 120.94-32.15L120.94-32.15Q120.94-30.9 120.39-29.73 119.84-28.55 118.64-27.78 117.44-27 115.39-27L115.39-27Q114.44-27 113.07-27.18 111.69-27.35 110.14-27.55L110.14-27.55Q109.59-24.55 109.02-20.38 108.44-16.2 108.07-11.4 107.69-6.6 107.59-1.65L107.59-1.65Q106.69-0.7 105.47-0.25 104.24 0.2 103.09 0.2ZM130.14 0.3L130.14 0.3Q126.79 0.3 124.62-0.85 122.44-2 121.39-3.8 120.34-5.6 120.34-7.5L120.34-7.5Q120.34-9.35 121.24-11.03 122.14-12.7 123.82-13.8 125.49-14.9 127.79-14.9L127.79-14.9Q127.74-14.45 127.74-14.08 127.74-13.7 127.74-13.7L127.74-13.7Q127.74-10.35 128.39-8.43 129.04-6.5 130.04-5.68 131.04-4.85 132.09-4.85L132.09-4.85Q133.69-4.85 134.94-6.13 136.19-7.4 136.19-9.1L136.19-9.1Q136.19-11 134.56-12.45 132.94-13.9 130.44-15.65L130.44-15.65Q129.04-16.7 127.47-18.03 125.89-19.35 124.79-21.18 123.69-23 123.69-25.5L123.69-25.5Q123.69-28.1 124.92-30.1 126.14-32.1 128.17-33.48 130.19-34.85 132.62-35.58 135.04-36.3 137.44-36.3L137.44-36.3Q140.39-36.3 142.29-35.35 144.19-34.4 145.14-32.9 146.09-31.4 146.09-29.8L146.09-29.8Q146.09-28.3 145.27-26.93 144.44-25.55 142.84-24.7 141.24-23.85 138.89-23.85L138.89-23.85Q139.04-24.55 139.09-25.13 139.14-25.7 139.14-26.15L139.14-26.15Q139.14-28.65 138.06-29.73 136.99-30.8 135.69-30.8L135.69-30.8Q134.44-30.8 133.29-29.88 132.14-28.95 132.14-26.9L132.14-26.9Q132.14-25.15 133.06-23.9 133.99-22.65 135.47-21.7 136.94-20.75 138.59-19.85L138.59-19.85Q140.29-18.95 141.87-17.88 143.44-16.8 144.49-15.35 145.54-13.9 145.54-11.7L145.54-11.7Q145.54-9.4 144.29-7.23 143.04-5.05 140.89-3.38 138.74-1.7 135.97-0.7 133.19 0.3 130.14 0.3Z" fill="#000000" data-fill-palette-color="primary"></path></g></svg></g></svg></g></svg></g></svg></g><g transform="matrix(1,0,0,1,46.68638976,0)"><svg viewBox="0 0 151.05858048 50.35688838881279" height="50.35688838881279" width="151.05858048"><g><svg version="1.0" xmlns="http://www.w3.org/2000/svg" xmlns:xlink="http://www.w3.org/1999/xlink" x="0" y="0" viewBox="0 0 100 33.336" enable-background="new 0 0 100 33.336" xml:space="preserve" width="151.05858048" height="50.35688838881279" class="icon-icon-0" data-fill-palette-color="accent" id="icon-0"><path fill-rule="evenodd" clip-rule="evenodd" d="M36.443 26.791h6.367l-2.645-3.025H22.006L21.999 6.704h-8.615c-2.246 0-3.66 0-4.588 3.275l-1.558 6.408H3.655c-1.765 0-1.765 0-1.765 1.8 0 2.861 0 5.73 0 8.604H0v1.986h6.762c0.336 2.702 1.981 4.559 4.568 4.559 2.561 0 4.314-1.895 4.886-4.559h2.708v-1.986h7.332c-0.041 0.255-0.056 0.812-0.056 1.092 0 3.006 2.323 5.453 5.175 5.453 2.842 0 5.165-2.447 5.165-5.453C36.54 27.536 36.501 27.108 36.443 26.791" fill="#000000" data-fill-palette-color="accent"></path><path fill-rule="evenodd" clip-rule="evenodd" d="M85.854 33.096c3.059 0 5.54-2.626 5.54-5.848 0-0.409-0.031-0.809-0.118-1.195H100V0H24.055v21.088h18.111l4.294 4.965h33.976c-0.077 0.387-0.115 0.786-0.115 1.195C80.321 30.47 82.808 33.096 85.854 33.096" fill="#000000" data-fill-palette-color="accent"></path></svg></g></svg></g><g></g></svg></g></svg></g><g><path d="M99.227 51.295A122.216 122.216 0 0 1 296.293 51.295L291.317 51.295A117.24 117.24 0 0 0 104.203 51.295L99.227 51.295M99.227 195.905A122.216 122.216 0 0 0 296.293 195.905L291.317 195.905A117.24 117.24 0 0 1 104.203 195.905L99.227 195.905" fill="#000000" stroke="transparent" data-fill-palette-color="tertiary"></path></g></svg></g><defs></defs></svg><rect width="395.52" height="247.2" fill="none" stroke="none" visibility="hidden"></rect></g></svg></g></svg>